<svg width="238" height="67" viewBox="0 0 238 67" fill="none" xmlns="http://www.w3.org/2000/svg">
<path d="M216.498 48.92V17H222.882V35.396L230.232 26.66H237.498L228.762 36.824L237.876 48.92H230.358L222.882 38.924V48.92H216.498Z" fill="white"/>
<path d="M200.061 49.34C197.569 49.34 195.455 48.808 193.719 47.744C191.983 46.652 190.653 45.238 189.729 43.502C188.833 41.738 188.385 39.834 188.385 37.79C188.385 35.746 188.833 33.856 189.729 32.12C190.653 30.356 191.983 28.942 193.719 27.878C195.455 26.786 197.569 26.24 200.061 26.24C202.553 26.24 204.667 26.786 206.403 27.878C208.139 28.942 209.455 30.356 210.351 32.12C211.275 33.856 211.737 35.746 211.737 37.79C211.737 39.834 211.275 41.738 210.351 43.502C209.455 45.238 208.139 46.652 206.403 47.744C204.667 48.808 202.553 49.34 200.061 49.34ZM200.061 44.132C201.181 44.132 202.119 43.838 202.875 43.25C203.659 42.662 204.261 41.892 204.681 40.94C205.101 39.96 205.311 38.91 205.311 37.79C205.311 36.642 205.101 35.592 204.681 34.64C204.261 33.688 203.659 32.918 202.875 32.33C202.119 31.742 201.181 31.448 200.061 31.448C198.941 31.448 197.989 31.742 197.205 32.33C196.421 32.918 195.819 33.688 195.399 34.64C195.007 35.592 194.811 36.642 194.811 37.79C194.811 38.91 195.007 39.96 195.399 40.94C195.819 41.892 196.421 42.662 197.205 43.25C197.989 43.838 198.941 44.132 200.061 44.132Z" fill="white"/>
<path d="M172.622 49.34C170.13 49.34 168.016 48.808 166.28 47.744C164.544 46.652 163.214 45.238 162.29 43.502C161.394 41.738 160.946 39.834 160.946 37.79C160.946 35.746 161.394 33.856 162.29 32.12C163.214 30.356 164.544 28.942 166.28 27.878C168.016 26.786 170.13 26.24 172.622 26.24C175.114 26.24 177.228 26.786 178.964 27.878C180.7 28.942 182.016 30.356 182.912 32.12C183.836 33.856 184.298 35.746 184.298 37.79C184.298 39.834 183.836 41.738 182.912 43.502C182.016 45.238 180.7 46.652 178.964 47.744C177.228 48.808 175.114 49.34 172.622 49.34ZM172.622 44.132C173.742 44.132 174.68 43.838 175.436 43.25C176.22 42.662 176.822 41.892 177.242 40.94C177.662 39.96 177.872 38.91 177.872 37.79C177.872 36.642 177.662 35.592 177.242 34.64C176.822 33.688 176.22 32.918 175.436 32.33C174.68 31.742 173.742 31.448 172.622 31.448C171.502 31.448 170.55 31.742 169.766 32.33C168.982 32.918 168.38 33.688 167.96 34.64C167.568 35.592 167.372 36.642 167.372 37.79C167.372 38.91 167.568 39.96 167.96 40.94C168.38 41.892 168.982 42.662 169.766 43.25C170.55 43.838 171.502 44.132 172.622 44.132Z" fill="white"/>
<path d="M131.882 48.92V17.84H146.246C148.262 17.84 149.956 18.19 151.328 18.89C152.728 19.59 153.792 20.528 154.52 21.704C155.248 22.852 155.612 24.126 155.612 25.526C155.612 26.898 155.36 28.046 154.856 28.97C154.352 29.866 153.736 30.594 153.008 31.154C152.308 31.686 151.622 32.05 150.95 32.246V32.582C151.706 32.75 152.546 33.114 153.47 33.674C154.394 34.234 155.192 35.032 155.864 36.068C156.536 37.104 156.872 38.448 156.872 40.1C156.872 41.556 156.522 42.956 155.822 44.3C155.15 45.644 154.044 46.75 152.504 47.618C150.992 48.486 149.018 48.92 146.582 48.92H131.882ZM145.154 23.258H138.35V30.482H145.154C146.61 30.482 147.674 30.132 148.346 29.432C149.018 28.732 149.354 27.878 149.354 26.87C149.354 25.89 149.018 25.05 148.346 24.35C147.674 23.622 146.61 23.258 145.154 23.258ZM145.658 35.438H138.35V43.502H145.658C147.31 43.502 148.5 43.11 149.228 42.326C149.984 41.514 150.362 40.548 150.362 39.428C150.362 38.336 149.984 37.398 149.228 36.614C148.5 35.83 147.31 35.438 145.658 35.438Z" fill="white"/>
<path d="M108.208 57.11C107.452 57.11 106.85 57.082 106.402 57.026C105.954 56.97 105.73 56.942 105.73 56.942V51.818C105.73 51.818 105.912 51.832 106.276 51.86C106.668 51.888 107.144 51.902 107.704 51.902C109.048 51.902 110.154 51.706 111.022 51.314C111.89 50.95 112.646 50.222 113.29 49.13L105.058 26.66H111.442L116.608 41.738L121.648 26.66H128.074L120.094 48.038C119.366 50.082 118.484 51.776 117.448 53.12C116.44 54.464 115.194 55.458 113.71 56.102C112.226 56.774 110.392 57.11 108.208 57.11Z" fill="white"/>
<path d="M69.6519 48.92V26.66H76.0359V29.684H76.2459C76.7219 28.872 77.4359 28.102 78.3879 27.374C79.3399 26.618 80.6419 26.24 82.2939 26.24C83.9739 26.24 85.3179 26.632 86.3259 27.416C87.3619 28.2 88.1179 29.166 88.5939 30.314H88.6779C89.0419 29.67 89.5179 29.04 90.1059 28.424C90.7219 27.78 91.4779 27.262 92.3739 26.87C93.2979 26.45 94.3759 26.24 95.6079 26.24C97.1479 26.24 98.4219 26.59 99.4299 27.29C100.438 27.99 101.18 28.914 101.656 30.062C102.16 31.182 102.412 32.386 102.412 33.674V48.92H96.0279V35.27C96.0279 34.178 95.7479 33.282 95.1879 32.582C94.6559 31.854 93.8439 31.49 92.7519 31.49C91.9119 31.49 91.2259 31.7 90.6939 32.12C90.1899 32.54 89.8119 33.086 89.5599 33.758C89.3359 34.402 89.2239 35.074 89.2239 35.774V48.92H82.8399V35.27C82.8399 34.178 82.5599 33.282 81.9999 32.582C81.4679 31.854 80.6559 31.49 79.5639 31.49C78.7239 31.49 78.0379 31.7 77.5059 32.12C77.0019 32.54 76.6239 33.086 76.3719 33.758C76.1479 34.402 76.0359 35.074 76.0359 35.774V48.92H69.6519Z" fill="white"/>
<path d="M33.4991 61.6401C32.6616 61.6401 31.8241 61.4446 31.1262 61.0538C25.9058 58.2063 16.7491 55.1913 10.9982 54.4376L10.1887 54.326C6.53164 53.8793 3.5166 50.4455 3.5166 46.7325V13.0092C3.5166 10.8037 4.38203 8.79382 5.97328 7.34216C7.56453 5.89049 9.63027 5.19254 11.8078 5.38796C17.9215 5.89046 27.1899 8.96132 32.4382 12.2276L33.1082 12.6184C33.3036 12.7022 33.7224 12.7301 33.8899 12.6184L34.3365 12.3392C36.207 11.1667 38.5519 10.0221 41.1203 8.98915C41.7624 8.7379 42.4882 8.82169 43.0745 9.21253C43.6607 9.60336 43.9958 10.2454 43.9958 10.9433V18.425L46.3129 16.8896C47.0108 16.415 47.9319 16.415 48.6299 16.8896L50.947 18.425V7.76098C50.947 6.75598 51.6728 5.89042 52.6499 5.695C53.4595 5.55542 54.2691 5.44379 54.9949 5.38796C55.0508 5.38796 55.2741 5.38796 55.3299 5.38796C57.3678 5.22046 59.4615 5.91844 61.0249 7.3701C62.6161 8.82177 63.4815 10.8317 63.4815 13.0371V46.7325C63.4815 50.4734 60.4667 53.8793 56.7817 54.326L55.8604 54.4376C50.1095 55.1913 40.897 58.2342 35.7883 61.0538C35.1741 61.4446 34.3366 61.6401 33.4991 61.6401ZM11.1099 9.51957C10.2165 9.51957 9.40703 9.82667 8.76495 10.4129C8.06703 11.055 7.67616 11.9762 7.67616 13.0092V46.7325C7.67616 48.3796 9.09996 49.9708 10.6912 50.1942L11.5287 50.306C17.8099 51.1435 27.4412 54.2979 33.0245 57.3688C33.2758 57.4804 33.6386 57.5084 33.7782 57.4526C39.3894 54.3539 49.0487 51.1714 55.3579 50.3339L56.3069 50.2221C57.8982 50.0267 59.322 48.4076 59.322 46.7605V13.065C59.322 12.0321 58.9311 11.1388 58.2332 10.4688C57.5353 9.82673 56.5583 9.51962 55.5533 9.57546C55.4696 9.57546 55.2183 9.57546 55.1624 9.57546V22.3334C55.1624 23.1151 54.7436 23.8129 54.0457 24.1758C53.3478 24.5387 52.5383 24.5109 51.8962 24.0642L47.4854 21.133L43.0745 24.0642C42.4324 24.483 41.6228 24.5387 40.9248 24.1758C40.2548 23.8129 39.8083 23.1151 39.8083 22.3334V14.1538C38.6079 14.7401 37.519 15.3263 36.5698 15.8847L36.1232 16.1637C34.5878 17.1129 32.4104 17.1129 30.9308 16.1917L30.2608 15.773C25.5429 12.8139 16.9445 9.96624 11.4728 9.51957C11.3332 9.51957 11.2215 9.51957 11.1099 9.51957Z" fill="white"/>
<path d="M33.5 59.295C32.3554 59.295 31.4062 58.3458 31.4062 57.2012V15.3262C31.4062 14.1816 32.3554 13.2325 33.5 13.2325C34.6446 13.2325 35.5938 14.1816 35.5938 15.3262V57.2012C35.5938 58.3737 34.6446 59.295 33.5 59.295Z" fill="white"/>
<path d="M53.0417 24.4271C52.6229 24.4271 52.2321 24.3154 51.8692 24.0641L47.4583 21.1329L43.0475 24.0641C42.4054 24.4829 41.5959 24.5386 40.898 24.1757C40.228 23.8128 39.7812 23.115 39.7812 22.3333V10.9433C39.7812 10.0778 40.3116 9.32405 41.0933 8.98905C44.9458 7.45364 49.1613 6.25324 52.7067 5.69491C53.3208 5.58324 53.935 5.77878 54.4096 6.16961C54.8841 6.56045 55.1354 7.14672 55.1354 7.76088V22.3333C55.1354 23.115 54.7166 23.8128 54.0187 24.1757C53.7116 24.3432 53.3767 24.4271 53.0417 24.4271ZM47.4583 16.5266C47.8492 16.5266 48.2679 16.6383 48.6308 16.8895L50.9479 18.4249V10.3012C48.7146 10.8037 46.2858 11.5296 43.9688 12.395V18.4249L46.2859 16.8895C46.6488 16.6383 47.0675 16.5266 47.4583 16.5266Z" fill="white"/>
</svg>
